<?xml version="1.0" encoding="utf-8"?>
<!-- Generator: Adobe Illustrator 25.4.0, SVG Export Plug-In . SVG Version: 6.00 Build 0)  -->
<svg version="1.1" id="weight" xmlns="http://www.w3.org/2000/svg" xmlns:xlink="http://www.w3.org/1999/xlink" x="0px" y="0px"
	 viewBox="0 0 3048.6 3314.7" style="enable-background:new 0 0 3048.6 3314.7;" xml:space="preserve">
<g>
	<path d="M2800.8,2838l-286-1596.3c-15.2-85-89-147.2-175.3-147.2h-382.5c61.6-86.4,94.7-191.5,94.7-300.9
		c0-290.8-236.6-527.1-527.3-527.1c-290.8,0-527.4,236.2-527.4,527c0,109.4,33.1,214.6,94.7,301H709.2
		c-86.3,0-160.1,62.2-175.3,147.2l-286,1596.1c-9.3,52.1,4.8,105.7,38.7,146.2c33.9,40.5,83.7,64.3,136.6,64.3h2202.3
		c52.9,0,102.7-23.6,136.6-64.2C2796,2943.5,2810.1,2890,2800.8,2838z M2695.7,2929c-17.4,20.8-43,33.6-70.2,33.6H423.1
		c-27.2,0-52.7-12.8-70.2-33.6c-17.4-20.8-24.7-48.5-19.9-75.3l286-1596.2c7.8-43.7,45.7-75.7,90.1-75.7h581.3l-75.3-74
		c-84.9-83.7-131.7-195-131.7-313.8c0-243,197.7-440.7,440.8-440.7c243,0,440.8,197.7,440.8,440.8c0,118.7-46.8,230-131.7,313.7
		l-75.3,74h581.3c44.4,0,82.2,31.9,90.1,75.5l286,1596.3C2720.4,2880.4,2713.1,2908.2,2695.7,2929z"/>
	<path d="M1772.3,794.1c0-142.1-115.6-257.7-257.7-257.7S1256.8,652,1256.8,794.1s115.6,257.8,257.8,257.8
		S1772.3,936.2,1772.3,794.1z M1514.5,965.3c-94.4,0-171.2-76.8-171.2-171.2c0-94.4,76.8-171.2,171.2-171.2
		c94.4,0,171.2,76.8,171.2,171.2C1685.7,888.5,1608.9,965.3,1514.5,965.3z M1273.9,2041.7l165.7-171.4c11.2-11.6,14.4-28.1,8.1-42.9
		c-6.3-14.8-20.8-23.8-37-23.8h-54.6c-11.2,0-22.7,4-30.3,12.3l-239.6,259.3v-210.9c0-34.3-28.2-62.1-62.5-62.1
		s-62.5,27.8-62.5,62.1V2355c0,34.3,28.2,62.1,62.5,62.1s62.5-27.8,62.5-62.1v-123.7l101.4-102.7l157.8,268.3
		c7.2,12.3,20.8,19.5,35,19.5h63.6c14.7,0,28.3-7.7,35.3-20.6c7-13,6.4-28.5-1.6-40.9L1273.9,2041.7z M2087.5,2127.6
		c0-22.2-14.7-42-36.8-42H1875c-28.6,0-51.8,25.1-51.8,53.7c0,28.6,23.2,53.7,51.8,53.7h87.4v76c-15.1,14.5-39.7,26.9-65.8,37.1
		c-26.1,10.2-51.5,15.3-77.5,15.3c-52.6,0-94.7-18.2-127.1-54.7c-32.4-36.5-48.5-91.2-48.5-164.2c0-67.7,16.1-118.7,48.1-153.1
		c32-34.4,75.2-51.6,129.4-51.6c35.8,0,65.6,8.7,89.6,26.2c13.3,9.7,24.2,21.4,32.8,35c13.4,21.3,38.5,32.3,63.2,27.7l0.1,0
		c21.1-4,38.8-18.4,46.9-38.3c8.1-19.9,5.7-42.5-6.6-60.2c-12.8-18.5-28.6-34.6-47.2-48.5c-42.9-32-102.5-48-178.8-48
		c-58.7,0-107.8,10.2-147.2,30.6c-51.7,26.6-91,64.7-117.8,114.5c-26.8,49.7-40.3,106.7-40.3,170.7c0,59,12,113.6,36.1,163.8
		c24,50.2,60,88.8,107.8,115.7c47.8,27,103.9,40.5,168.2,40.5c50.6,0,100.6-9.6,149.9-28.7c40.5-15.7,71.5-33.4,96.2-53.2
		c9.5-7.6,13.5-19.2,13.5-31.4l0,0L2087.5,2127.6L2087.5,2127.6z"/>
</g>
</svg>
